<svg width="288" height="108" viewBox="0 0 288 108" fill="none" xmlns="http://www.w3.org/2000/svg">
<g clip-path="url(#clip0_112_10)">
<rect y="9" width="90" height="90" rx="10" fill="#00ADB5"/>
<path d="M40.06 45.07H44.33C46.3833 45.07 47.9233 45.5833 48.95 46.61C50.0233 47.59 50.56 48.8733 50.56 50.46V80H42.58C41.8333 80 41.2267 79.7433 40.76 79.23C40.2933 78.7167 40.06 78.04 40.06 77.2V45.07ZM40.55 30.16C41.0633 29.6467 42.5567 29.39 45.03 29.39C47.5033 29.39 48.9967 29.6467 49.51 30.16C50.0233 30.6267 50.28 32.0267 50.28 34.36C50.28 36.6933 50 38.1167 49.44 38.63C48.9267 39.1433 47.4567 39.4 45.03 39.4C42.6033 39.4 41.11 39.1433 40.55 38.63C40.0367 38.1167 39.78 36.6933 39.78 34.36C39.78 32.0267 40.0367 30.6267 40.55 30.16Z" fill="#EEEEEE" fill-opacity="0.933333"/>
<path d="M142.55 24.49C144.65 24.49 146.12 24.9567 146.96 25.89C147.847 26.7767 148.29 28.2233 148.29 30.23V80H139.82V38.21L127.01 62.99H121.83L109.44 38.49V80H101.67V24.49H106.43C107.97 24.49 109.09 24.7467 109.79 25.26C110.49 25.7267 111.143 26.6133 111.75 27.92L124.98 53.26L139.89 24.49H142.55ZM157.752 47.17C157.752 43.2967 158.685 40.5667 160.552 38.98C162.419 37.3467 165.475 36.53 169.722 36.53H177.352C181.645 36.53 184.725 37.3467 186.592 38.98C188.459 40.5667 189.392 43.2967 189.392 47.17V69.99C189.392 73.8633 188.459 76.6167 186.592 78.25C184.725 79.8367 181.645 80.63 177.352 80.63H169.722C165.475 80.63 162.419 79.8367 160.552 78.25C158.685 76.6167 157.752 73.8633 157.752 69.99V47.17ZM167.272 43.6C166.619 43.6 166.292 43.9267 166.292 44.58V72.58C166.292 73.2333 166.619 73.56 167.272 73.56H179.942C180.549 73.56 180.852 73.2333 180.852 72.58V44.58C180.852 43.9267 180.549 43.6 179.942 43.6H167.272ZM212.244 80.42L202.864 80L193.764 37.16H202.164L209.724 73.77H213.434C213.9 73.77 214.227 73.4433 214.414 72.79L221.694 37.16H229.884L222.324 71.32C221.857 73.6067 221.274 75.45 220.574 76.85C219.92 78.25 218.964 79.23 217.704 79.79C216.444 80.35 214.624 80.56 212.244 80.42ZM235.719 29.53V21.69H244.259V29.53H235.719ZM235.719 80V37.16H244.259V80H235.719ZM265.839 80.49C261.592 80.49 258.512 79.6733 256.599 78.04C254.732 76.4067 253.799 73.6533 253.799 69.78V46.75C253.799 42.8767 254.615 40.2167 256.249 38.77C257.882 37.2767 260.682 36.53 264.649 36.53H273.259C277.272 36.53 280.119 37.2767 281.799 38.77C283.525 40.2167 284.389 42.8767 284.389 46.75V63.48H262.339V72.44C262.339 73.0467 262.642 73.35 263.249 73.35H283.269V80.49H265.839ZM263.249 43.39C262.642 43.39 262.339 43.7167 262.339 44.37V57.32H275.919V44.37C275.919 43.7167 275.615 43.39 275.009 43.39H263.249Z" fill="#EEEEEE" fill-opacity="0.933333"/>
</g>
<defs>
<clipPath id="clip0_112_10">
<rect width="288" height="108" fill="white"/>
</clipPath>
</defs>
</svg>
